HIERARCHY
ROOT Hips
{
	OFFSET 0.000000 0.000000 0.000000
	CHANNELS 6 Xposition Yposition Zposition Zrotation Yrotation Xrotation 
	JOINT LHipJoint
	{
		OFFSET 0.000000 0.000000 0.000000
		CHANNELS 3 Zrotation Yrotation Xrotation
		JOINT LeftUpLeg
		{
			OFFSET 1.363060 -1.794630 0.839290
			CHANNELS 3 Zrotation Yrotation Xrotation
			JOINT LeftLeg
			{
				OFFSET 2.448110 -6.726130 0.000000
				CHANNELS 3 Zrotation Yrotation Xrotation
				JOINT LeftFoot
				{
					OFFSET 2.562200 -7.039590 0.000000
					CHANNELS 3 Zrotation Yrotation Xrotation
					JOINT LeftToeBase
					{
						OFFSET 0.157640 -0.433110 2.322550
						CHANNELS 3 Zrotation Yrotation Xrotation
						End Site
						{
							OFFSET 0.000000 0.000000 0.000000
						}
					}
				}
			}
		}
	}
	JOINT RHipJoint
	{
		OFFSET 0.000000 0.000000 0.000000
		CHANNELS 3 Zrotation Yrotation Xrotation
		JOINT RightUpLeg
		{
			OFFSET -1.305520 -1.794630 0.839290
			CHANNELS 3 Zrotation Yrotation Xrotation
			JOINT RightLeg
			{
				OFFSET -2.542530 -6.985550 0.000000
				CHANNELS 3 Zrotation Yrotation Xrotation
				JOINT RightFoot
				{
					OFFSET -2.568260 -7.056230 0.000000
					CHANNELS 3 Zrotation Yrotation Xrotation
					JOINT RightToeBase
					{
						OFFSET -0.164730 -0.452590 2.363150
						CHANNELS 3 Zrotation Yrotation Xrotation
						End Site
						{
							OFFSET 0.000000 0.000000 0.000000
						}
					}
				}
			}
		}
	}
	JOINT LowerBack
	{
		OFFSET 0.000000 0.000000 0.000000
		CHANNELS 3 Zrotation Yrotation Xrotation
		JOINT Spine
		{
			OFFSET 0.028270 2.035590 -0.193380
			CHANNELS 3 Zrotation Yrotation Xrotation
			JOINT Spine1
			{
				OFFSET 0.056720 2.048850 -0.042750
				CHANNELS 3 Zrotation Yrotation Xrotation
				JOINT Neck
				{
					OFFSET 0.000000 0.000000 0.000000
					CHANNELS 3 Zrotation Yrotation Xrotation
					JOINT Neck1
					{
						OFFSET -0.054170 1.746240 0.172020
						CHANNELS 3 Zrotation Yrotation Xrotation
						JOINT Head
						{
							OFFSET 0.104070 1.761360 -0.123970
							CHANNELS 3 Zrotation Yrotation Xrotation
							End Site
							{
								OFFSET 0.000000 0.000000 0.000000
							}
						}
					}
				}
				JOINT LeftShoulder
				{
					OFFSET 0.000000 0.000000 0.000000
					CHANNELS 3 Zrotation Yrotation Xrotation
					JOINT LeftArm
					{
						OFFSET 3.362410 1.200890 -0.311210
						CHANNELS 3 Zrotation Yrotation Xrotation
						JOINT LeftForeArm
						{
							OFFSET 4.983000 -0.000000 -0.000000
							CHANNELS 3 Zrotation Yrotation Xrotation
							JOINT LeftHand
							{
								OFFSET 3.483560 -0.000000 -0.000000
								CHANNELS 3 Zrotation Yrotation Xrotation
								JOINT LeftFingerBase
								{
									OFFSET 0.000000 0.000000 0.000000
									CHANNELS 3 Zrotation Yrotation Xrotation
									JOINT LeftHandIndex1
									{
										OFFSET 0.715260 -0.000000 -0.000000
										CHANNELS 3 Zrotation Yrotation Xrotation
										End Site
										{
											OFFSET 0.000000 0.000000 0.000000
										}
									}
								}
								JOINT LThumb
								{
									OFFSET 0.000000 0.000000 0.000000
									CHANNELS 3 Zrotation Yrotation Xrotation
									End Site
									{
										OFFSET 0.000000 0.000000 0.000000
									}
								}
							}
						}
					}
				}
				JOINT RightShoulder
				{
					OFFSET 0.000000 0.000000 0.000000
					CHANNELS 3 Zrotation Yrotation Xrotation
					JOINT RightArm
					{
						OFFSET -3.136600 1.374050 -0.404650
						CHANNELS 3 Zrotation Yrotation Xrotation
						JOINT RightForeArm
						{
							OFFSET -5.241900 -0.000000 -0.000000
							CHANNELS 3 Zrotation Yrotation Xrotation
							JOINT RightHand
							{
								OFFSET -3.444170 -0.000000 -0.000000
								CHANNELS 3 Zrotation Yrotation Xrotation
								JOINT RightFingerBase
								{
									OFFSET 0.000000 0.000000 0.000000
									CHANNELS 3 Zrotation Yrotation Xrotation
									JOINT RightHandIndex1
									{
										OFFSET -0.622530 -0.000000 -0.000000
										CHANNELS 3 Zrotation Yrotation Xrotation
										End Site
										{
											OFFSET 0.000000 0.000000 0.000000
										}
									}
								}
								JOINT RThumb
								{
									OFFSET 0.000000 0.000000 0.000000
									CHANNELS 3 Zrotation Yrotation Xrotation
									End Site
									{
										OFFSET 0.000000 0.000000 0.000000
									}
								}
							}
						}
					}
				}
			}
		}
	}
}
MOTION
Frames: 8
Frame Time: 0.008333
-6.224371 17.617408 -1.018919 2.956359 -43.250335 13.069019 -0.838801 0.631856 -0.082663 -19.839376 -8.337078 -36.236607 1.251352 10.291620 30.047168 0.749889 -3.107888 6.066944 0.184500 -2.766700 -7.629800 -0.198782 -2.137336 1.507879 12.368454 2.160663 -23.773989 -7.236502 -15.169265 51.081878 0.528839 -4.792612 -8.095244 -0.164300 2.611500 -7.198900 -0.340701 0.943900 12.963470 1.770457 0.873932 2.314185 3.277087 0.883560 -2.467796 -9.985353 -3.481171 -15.932244 6.113662 -2.488867 6.226025 3.763400 -1.355400 8.030000 -10.314346 -0.852262 -1.468531 -80.393155 -12.225317 48.255948 22.285413 -35.298059 -8.193151 0.359000 -1.595602 -9.848672 13.598003 29.754285 7.155400 -7.125000 0.000000 0.000000 -21.359800 60.864600 -8.479600 9.435775 2.484051 -1.108729 72.558486 8.149459 24.109696 -16.637642 23.226780 -4.236529 1.489251 -0.194600 6.383707 -27.233651 -5.346070 2.868400 7.125000 0.000000 0.000000 -1.720200 -35.949900 -0.382800 
-6.266683 17.613086 -0.952586 2.923896 -43.105932 12.853105 -0.829609 0.659009 -0.061505 -19.766344 -8.667703 -36.004725 1.386033 10.465404 30.648641 0.729092 -3.048166 5.567090 0.130600 -2.329000 -6.415800 -0.246214 -2.139231 1.485765 12.291009 1.851641 -24.202197 -7.623300 -15.455272 52.372115 0.732735 -5.559444 -7.041006 -0.180900 2.739600 -7.554500 -0.487401 0.822636 12.792801 1.800233 0.702621 2.265970 3.424726 0.790033 -2.412208 -10.493262 -3.487035 -15.805375 6.637651 -2.358054 6.160875 4.035200 -1.275600 7.995900 -10.307505 -0.822207 -1.479449 -80.455578 -12.445828 47.171365 22.361800 -35.367841 -8.232392 0.357032 -1.621793 -12.216954 15.075792 30.444539 8.164500 -7.125000 0.000000 0.000000 -20.297200 61.910400 -8.541400 9.404945 2.537217 -1.081450 72.473340 8.680501 24.706993 -17.024117 23.667199 -4.428535 1.608949 -0.085184 4.397616 -28.582299 -6.624258 3.806800 7.125000 0.000000 0.000000 -2.936600 -37.551300 -0.539000 
-6.308393 17.596604 -0.889569 2.807926 -43.107441 12.719381 -0.814434 0.674119 -0.042242 -19.709980 -8.722070 -35.859585 1.510653 10.628056 31.210966 0.727908 -3.084672 5.099370 0.099400 -2.033100 -5.597000 -0.288731 -2.135424 1.454112 12.237428 1.831364 -24.651718 -8.041007 -15.751304 53.747717 0.921857 -6.312339 -6.004949 -0.156000 2.545200 -7.015100 -0.554989 0.894182 12.649357 1.756310 0.785715 2.228231 3.390009 0.832149 -2.382155 -10.409973 -3.437999 -15.921984 6.590428 -2.307923 6.216561 4.013400 -1.250900 8.023400 -10.292475 -0.847403 -1.473644 -80.461771 -12.784353 46.508841 22.473011 -35.470730 -8.295830 0.380622 -1.652018 -15.614729 16.532989 31.257161 9.238000 -7.125000 0.000000 0.000000 -19.343900 63.089200 -8.660700 9.380327 2.544720 -1.066526 72.656222 9.346285 24.308598 -17.290880 23.949589 -4.570456 1.699959 -0.028772 3.175863 -29.880042 -7.386878 4.488000 7.125000 0.000000 0.000000 -4.125500 -38.543000 -0.657400 
-6.350002 17.573186 -0.830171 2.739644 -43.065257 12.608741 -0.797723 0.686590 -0.022794 -19.720105 -8.738541 -35.766382 1.644998 10.802339 31.815048 0.742798 -3.213572 4.529960 0.096200 -2.000000 -5.505500 -0.337229 -2.125167 1.418709 12.130391 1.880242 -25.166999 -8.483813 -16.053288 55.201289 1.011837 -6.657357 -5.163872 -0.104800 2.087300 -5.746900 -0.749428 0.882217 12.452239 1.814347 0.749652 2.168584 3.588650 0.811723 -2.337436 -10.606256 -3.348887 -15.965310 6.571331 -2.127365 6.177756 4.062100 -1.178300 8.000100 -10.276449 -0.865214 -1.467710 -80.767608 -13.185697 45.415453 22.600476 -35.585063 -8.373851 0.419647 -1.683377 -19.866539 18.226065 32.022372 10.493600 -7.125000 0.000000 0.000000 -18.048000 64.308600 -8.574200 9.364984 2.561085 -1.048883 72.722195 10.126189 23.664789 -17.452622 24.100529 -4.660698 1.760693 -0.017052 2.638559 -30.930808 -7.698532 4.871100 7.125000 0.000000 0.000000 -5.093500 -38.977900 -0.758000 
-6.389500 17.553286 -0.767355 2.781258 -42.780924 12.288327 -0.798325 0.715384 0.007691 -19.803712 -8.930195 -35.464833 1.789278 10.969507 32.441262 0.759677 -3.365602 3.987920 0.088900 -1.923400 -5.294000 -0.386524 -2.126470 1.396512 11.982735 1.679180 -25.589289 -8.942069 -16.349182 56.693488 1.054753 -6.828773 -4.557720 -0.115300 2.189200 -6.028900 -0.840072 0.702104 12.296977 1.854305 0.506104 2.173141 3.720958 0.681727 -2.206603 -10.969304 -3.284836 -15.982186 6.749816 -1.930842 6.077096 4.205900 -1.088200 7.957400 -10.265143 -0.868740 -1.455168 -81.126623 -13.766514 43.954680 22.520646 -35.480072 -8.327166 0.459634 -1.705917 -23.313390 19.378633 32.468148 11.361800 -7.125000 0.000000 0.000000 -17.064700 65.082000 -8.399500 9.337752 2.595175 -1.024735 72.872947 10.977776 23.546510 -17.768912 24.432805 -4.824472 1.831551 0.026761 1.483233 -32.169802 -8.144036 5.407700 7.125000 0.000000 0.000000 -6.248900 -39.608000 -0.834200 
-6.431009 17.537507 -0.713082 2.581622 -42.967364 12.258464 -0.774707 0.721753 0.026390 -19.738701 -8.716371 -35.425661 1.924968 11.144296 33.042200 0.777380 -3.468513 3.501320 0.078200 -1.804300 -4.965300 -0.426491 -2.107576 1.351613 11.935600 1.950178 -26.142915 -9.404212 -16.635109 58.172955 1.170669 -7.385686 -3.942754 -0.109600 2.134700 -5.877900 -0.929103 0.778407 12.049198 1.822210 0.592963 2.167220 3.701640 0.720597 -2.073353 -10.901744 -3.228834 -16.136813 6.619359 -1.862457 6.095433 4.163000 -1.062900 7.974300 -10.246823 -0.904580 -1.429620 -81.309481 -14.484448 42.834377 22.295831 -35.221412 -8.186177 0.498709 -1.731612 -25.994962 20.224129 33.139855 12.118500 -7.125000 0.000000 0.000000 -16.675000 65.991900 -8.552200 9.296967 2.596953 -1.017204 73.282625 11.686692 23.781514 -18.347235 25.078696 -5.118088 1.905411 0.099845 -0.214500 -33.679203 -8.649593 6.085400 7.125000 0.000000 0.000000 -7.669200 -40.360000 -0.883300 
-6.469100 17.518210 -0.657704 2.458313 -42.881193 12.078583 -0.761121 0.738925 0.049702 -19.710803 -8.722953 -35.242510 2.069447 11.313646 33.660023 0.797653 -3.600249 3.034350 0.070100 -1.708000 -4.699400 -0.464540 -2.101091 1.320195 11.873509 1.971658 -26.617787 -9.871179 -16.906926 59.639618 1.296990 -8.022326 -3.333535 -0.020900 0.933600 -2.566000 -0.839513 0.897627 11.994658 1.705736 0.755618 2.153371 3.449373 0.804392 -2.070709 -10.538778 -3.270928 -16.309449 6.415298 -2.013270 6.178809 4.019900 -1.131500 8.031900 -10.227201 -0.949879 -1.395750 -81.447602 -15.251588 42.099643 22.112663 -34.998185 -8.071120 0.566687 -1.755363 -28.757459 20.596634 34.344529 12.740400 -7.125000 0.000000 0.000000 -17.481000 67.274200 -9.488200 9.243493 2.588497 -1.014059 73.887031 12.243412 23.646491 -19.034542 25.847550 -5.471349 1.960769 0.164666 -1.651649 -35.105892 -9.043932 6.708700 7.125000 0.000000 0.000000 -9.019900 -40.988100 -0.900700 
-6.507192 17.497908 -0.595793 2.281793 -42.747184 11.706020 -0.766026 0.773735 0.084594 -19.655241 -8.762713 -34.782809 2.229104 11.482187 34.319147 0.816409 -3.703396 2.415554 0.079400 -1.818200 -5.003500 -0.488210 -2.111584 1.305234 11.810240 1.959594 -26.787445 -10.332083 -17.153083 61.082921 1.387057 -8.511376 -3.010586 -0.022800 -0.973800 2.676700 -0.482307 1.201846 12.154760 1.435297 1.185842 2.231725 2.790013 1.023262 -2.087720 -9.749048 -3.497350 -16.661172 6.209857 -2.523901 6.365146 3.759500 -1.341900 8.179900 -10.205095 -1.006628 -1.353512 -81.362192 -16.136308 42.232489 22.024818 -34.871373 -8.012926 0.644416 -1.776174 -32.116402 21.293081 35.521138 13.585000 -7.125000 0.000000 0.000000 -17.963900 68.623300 -10.304000 9.179793 2.573948 -1.001645 74.796296 12.848708 22.903036 -19.771515 26.654486 -5.855648 1.995849 0.208500 -2.965021 -36.387950 -9.118465 7.076100 7.125000 0.000000 0.000000 -10.216300 -41.204500 -0.967700 
